<svg width="367" height="367" viewBox="0 0 367 367" fill="none" xmlns="http://www.w3.org/2000/svg">
<path d="M220.672 263.188H162.247C152.227 263.188 144.029 255.022 144.029 245.042V193.628C144.029 183.648 152.227 175.482 162.247 175.482H220.672C230.693 175.482 238.891 183.648 238.891 193.628V245.042C238.891 255.022 230.692 263.188 220.672 263.188Z" fill="white"/>
<path d="M220.672 175.482C230.692 175.482 238.89 183.647 238.89 193.627V245.041C238.89 255.022 230.692 263.187 220.672 263.187H162.248C152.227 263.187 144.029 255.022 144.029 245.041V193.627C144.029 183.647 152.227 175.482 162.248 175.482H220.672ZM220.672 172.614H162.248C159.41 172.614 156.651 173.172 154.048 174.274C151.538 175.336 149.283 176.853 147.345 178.784C145.406 180.715 143.883 182.962 142.816 185.46C141.711 188.053 141.149 190.801 141.149 193.627V245.041C141.149 247.868 141.711 250.615 142.816 253.208C143.883 255.708 145.406 257.954 147.345 259.885C149.283 261.815 151.539 263.333 154.048 264.395C156.651 265.496 159.41 266.055 162.248 266.055H220.673C223.51 266.055 226.269 265.496 228.872 264.395C231.382 263.333 233.637 261.816 235.575 259.885C237.514 257.954 239.037 255.707 240.104 253.208C241.21 250.615 241.771 247.868 241.771 245.041V193.627C241.771 190.801 241.21 188.053 240.104 185.46C239.037 182.961 237.515 180.715 235.575 178.784C233.637 176.854 231.381 175.336 228.872 174.274C226.269 173.172 223.51 172.614 220.672 172.614Z" fill="#00227B"/>
<path d="M237.584 231.396C228.487 232.458 219.421 232.72 219.421 232.72C219.421 232.72 214.803 209.787 213.523 191.805C212.58 178.481 213.467 167.878 219.421 171.336C222.16 172.927 225.314 175.924 228.603 179.726C240.941 193.989 255.115 219.601 255.893 224.915C256.395 228.333 246.977 230.293 237.584 231.396Z" fill="white"/>
<path d="M218.203 234.247L217.954 233.014C217.926 232.873 215.103 218.782 213.275 204.192C212.197 195.59 211.671 188.488 211.709 183.083C211.76 175.701 212.837 171.515 215.095 169.908C216.087 169.202 217.773 168.655 220.176 170.05C228.096 174.652 238.147 189.313 243.434 197.642C246.961 203.198 250.337 209.038 252.941 214.086C254.775 217.643 257.034 222.371 257.375 224.699C257.475 225.375 257.408 226.401 256.528 227.445C255.255 228.954 252.611 230.136 248.207 231.162C244.978 231.914 240.829 232.561 235.874 233.086C227.486 233.973 219.544 234.209 219.465 234.211L218.203 234.247ZM217.359 172.167C217.07 172.167 216.918 172.275 216.835 172.333C215.859 173.028 212.931 177.35 216.244 203.808C217.744 215.79 219.922 227.439 220.646 231.184C223.2 231.081 229.261 230.787 235.575 230.119C250.233 228.566 253.507 226.39 254.236 225.527C254.437 225.289 254.421 225.178 254.413 225.13C253.988 222.234 248.458 211.136 240.904 199.235C232.156 185.452 224.052 175.753 218.668 172.625C218.057 172.27 217.642 172.167 217.359 172.167Z" fill="#00227B"/>
<path d="M173.134 170.49L171.293 184.362L170.245 192.249L168.011 209.088C168.011 209.088 163.929 211.853 157.138 214.045C154.6 214.865 151.678 215.598 148.453 216.079C143.18 216.869 137.085 216.97 130.48 215.625C113.489 212.158 103.291 199.587 98.8764 193.267C90.3435 181.067 89.0304 177.769 91.4024 172.633C93.2133 168.697 96.3159 167.979 96.3159 167.979C96.3159 167.979 96.1629 164.833 98.6624 163.715C106.154 160.364 115.804 169.313 115.804 169.313C115.804 169.313 116.163 159.69 121.334 161.911C124.897 163.443 125.705 173.92 125.705 173.92C125.705 173.92 130.487 180.04 138.083 180.852C142.053 181.276 147.547 180.129 153.003 178.463C153.066 178.444 153.13 178.426 153.193 178.403C156.101 177.509 158.99 176.472 161.635 175.447C162.821 174.989 163.958 174.53 165.025 174.091C169.792 172.123 173.134 170.49 173.134 170.49Z" fill="white"/>
<path opacity="0.35" d="M98.8739 193.267C103.293 199.586 113.489 212.159 130.479 215.625C141.121 217.793 150.447 216.2 157.139 214.042C163.93 211.853 168.011 209.086 168.011 209.086L168.311 195.798C168.311 195.798 163.684 191.357 159.374 193.168C154.196 195.343 155.855 202.739 148.459 204.796C127.899 210.514 111.197 200.067 105.823 195.48C98.3671 189.118 96.422 185.11 95.373 183.457C93.2018 180.035 91.525 177.347 90.5796 174.939C89.6162 179.012 91.6731 182.968 98.8739 193.267Z" fill="#00227B"/>
<path d="M140.732 218.148C137.184 218.148 133.651 217.793 130.179 217.084C122.541 215.526 115.415 212.019 109 206.658C104.872 203.208 101.052 198.988 97.647 194.119C93.492 188.175 90.8509 184.093 89.6464 180.813C88.4921 177.67 88.6064 175.12 90.0397 172.01C91.4507 168.946 93.5842 167.538 94.8734 166.934C95.0841 165.359 95.9043 163.316 98.0485 162.357C104.14 159.631 111.17 163.849 114.649 166.445C114.683 166.269 114.721 166.089 114.761 165.906C115.338 163.33 116.334 161.581 117.72 160.71C118.571 160.175 119.992 159.712 121.93 160.545C123.896 161.391 125.33 163.881 126.315 168.158C126.82 170.349 127.062 172.406 127.154 173.317C128.212 174.511 132.347 178.739 138.244 179.369C149.01 180.518 172.24 169.265 172.474 169.151C172.969 168.909 173.558 168.959 174.006 169.28C174.453 169.6 174.688 170.141 174.616 170.685L169.497 209.281C169.441 209.702 169.208 210.079 168.855 210.318C168.684 210.434 164.579 213.19 157.752 215.411C153.754 216.713 149.64 217.56 145.526 217.931C143.927 218.076 142.328 218.148 140.732 218.148ZM96.6621 169.427C96.4688 169.479 94.184 170.161 92.7598 173.252C90.8419 177.415 91.3133 179.841 100.103 192.414C108.367 204.235 118.974 211.755 130.779 214.163C141.535 216.356 150.877 214.511 156.821 212.577C161.859 210.937 165.334 208.981 166.619 208.2L171.289 172.995C168.85 174.105 164.859 175.848 160.381 177.52C150.412 181.24 142.856 182.859 137.925 182.333C129.791 181.465 124.736 175.106 124.524 174.836C124.344 174.605 124.235 174.326 124.213 174.034C124.211 174.01 124.008 171.465 123.39 168.792C122.347 164.286 121.1 163.435 120.743 163.281C119.849 162.897 119.463 163.139 119.318 163.23C118.06 164.018 117.378 167.294 117.296 169.368C117.273 169.95 116.911 170.466 116.371 170.689C115.829 170.911 115.209 170.799 114.78 170.402C114.691 170.32 105.767 162.171 99.2744 165.076C97.7786 165.745 97.8057 167.765 97.8099 167.91C97.8543 168.646 97.3853 169.274 96.6621 169.427Z" fill="#00227B"/>
<path d="M117.035 169.311C117.07 169.73 117.007 170.111 116.923 170.441C116.881 170.612 116.829 170.759 116.777 170.911C116.723 171.052 116.665 171.197 116.607 171.325C116.371 171.855 116.116 172.293 115.873 172.718C115.63 173.141 115.395 173.544 115.177 173.947L115.018 174.25C114.967 174.352 114.914 174.452 114.865 174.555L114.724 174.863L114.589 175.174L114.466 175.491L114.353 175.812C114.314 175.919 114.285 176.029 114.251 176.138C114.215 176.247 114.187 176.358 114.158 176.469C114.044 176.915 113.946 177.374 113.89 177.847C113.828 178.319 113.788 178.803 113.777 179.295C113.765 179.543 113.769 179.79 113.767 180.043C113.763 180.169 113.774 180.294 113.774 180.421C113.777 180.548 113.781 180.675 113.78 180.803V180.812C113.78 180.911 113.7 180.992 113.599 180.992C113.529 180.992 113.469 180.952 113.44 180.894C113.199 180.43 112.982 179.949 112.814 179.445C112.637 178.944 112.511 178.421 112.418 177.886C112.235 176.816 112.239 175.683 112.44 174.577L112.523 174.164C112.555 174.028 112.59 173.893 112.624 173.756C112.66 173.621 112.701 173.488 112.739 173.353C112.778 173.219 112.825 173.089 112.869 172.957C113.049 172.432 113.272 171.934 113.501 171.467C113.73 171.001 113.974 170.561 114.171 170.179C114.379 169.792 114.497 169.478 114.566 169.309L114.711 168.954C114.962 168.338 115.668 168.042 116.285 168.293C116.722 168.472 116.998 168.874 117.035 169.311Z" fill="#00227B"/>
<path d="M128.835 216.648C128.457 216.648 128.093 216.44 127.913 216.08C127.66 215.574 127.867 214.959 128.376 214.707C132.525 212.651 135.36 206.234 136.573 196.15C137.513 188.336 137.123 181.068 137.118 180.996C137.087 180.431 137.521 179.948 138.088 179.916C138.652 179.884 139.14 180.317 139.172 180.881C139.176 180.955 139.577 188.378 138.618 196.367C138.051 201.094 137.126 205.106 135.867 208.289C134.238 212.41 132.026 215.186 129.292 216.541C129.145 216.614 128.989 216.648 128.835 216.648Z" fill="#00227B"/>
<g opacity="0.35">
<g opacity="0.35">
<g opacity="0.35">
<g opacity="0.35">
<path opacity="0.35" d="M261.569 282.583V282.374C259.924 282.444 261.569 282.583 261.569 282.583Z" fill="#00227B"/>
</g>
</g>
</g>
</g>
<path d="M240.81 257.418H142.005C142.005 257.418 142.607 240.434 148.452 216.079C150.794 206.31 153.983 195.356 158.312 183.836C159.352 181.071 160.46 178.272 161.635 175.446C164.92 167.564 168.752 159.491 173.22 151.419H209.596C213.289 158.093 216.548 164.765 219.422 171.335C221.281 175.584 222.98 179.788 224.529 183.917C231.291 201.919 235.262 218.534 237.585 231.395C240.451 247.262 240.81 257.418 240.81 257.418Z" fill="white"/>
<path d="M227.246 196.584C229.156 198.707 230.028 201.179 230.835 203.661C231.24 204.902 231.639 206.146 232.02 207.396C232.21 208.021 232.406 208.644 232.577 209.274C232.752 209.903 232.922 210.534 233.093 211.164L233.593 213.058C233.758 213.69 233.924 214.321 234.079 214.956L234.988 218.766C235.136 219.402 235.298 220.034 235.443 220.671L235.877 222.58L236.322 224.487C236.471 225.122 236.626 225.756 236.766 226.394L237.623 230.215C237.771 230.851 237.897 231.492 238.033 232.13L238.435 234.047L238.635 235.005L238.736 235.484L238.83 235.965L239.206 237.886C239.331 238.527 239.46 239.167 239.596 239.806C239.725 240.446 239.856 241.086 239.993 241.725C240.566 244.276 240.983 246.86 241.157 249.477C241.179 249.804 241.205 250.13 241.22 250.459L241.262 251.443C241.284 252.1 241.302 252.756 241.292 253.418C241.288 254.077 241.273 254.738 241.23 255.401C241.192 256.064 241.137 256.727 241.036 257.395C241.017 257.523 240.896 257.612 240.767 257.593C240.679 257.58 240.61 257.52 240.58 257.443L240.58 257.44C240.107 256.19 239.721 254.935 239.357 253.679C239.178 253.052 239.005 252.422 238.838 251.794L238.597 250.849C238.522 250.533 238.444 250.219 238.365 249.903C238.059 248.642 237.789 247.377 237.546 246.107C237.429 245.471 237.323 244.834 237.226 244.195C237.121 243.556 237.025 242.917 236.926 242.278C236.829 241.638 236.727 240.999 236.623 240.361C236.513 239.724 236.39 239.088 236.266 238.453L235.893 236.548L235.8 236.072L235.701 235.597L235.501 234.647L235.103 232.747C234.968 232.114 234.842 231.479 234.697 230.848L233.846 227.059C233.709 226.426 233.55 225.798 233.399 225.169L232.934 223.283L232.458 221.401C232.381 221.087 232.293 220.775 232.209 220.463L231.953 219.526L230.925 215.781C230.57 214.536 230.206 213.294 229.86 212.047C229.687 211.423 229.514 210.799 229.346 210.174L229.221 209.705L229.089 209.238L228.828 208.303C228.48 207.057 228.15 205.805 227.825 204.551L227.586 203.608C227.507 203.295 227.419 202.983 227.335 202.67C227.168 202.044 227.028 201.41 226.923 200.765C226.818 200.119 226.745 199.464 226.717 198.793C226.702 198.458 226.7 198.119 226.713 197.775C226.726 197.43 226.748 197.082 226.809 196.722L226.811 196.709C226.834 196.572 226.964 196.481 227.1 196.504C227.159 196.514 227.21 196.544 227.246 196.584Z" fill="#00227B"/>
<path d="M141.773 257.41C141.621 257.073 141.516 256.738 141.418 256.401C141.32 256.063 141.247 255.73 141.182 255.394C141.051 254.722 140.98 254.054 140.94 253.388C140.922 253.054 140.91 252.721 140.911 252.389C140.912 252.057 140.925 251.727 140.94 251.397L140.996 250.406C141.014 250.076 141.034 249.746 141.061 249.416C141.164 248.099 141.265 246.779 141.419 245.468C141.489 244.811 141.567 244.155 141.645 243.499C141.682 243.171 141.734 242.845 141.778 242.517L141.917 241.536L142.207 239.577C142.309 238.925 142.428 238.276 142.539 237.625C142.766 236.324 142.98 235.022 143.239 233.728C143.491 232.433 143.721 231.134 143.979 229.841C144.24 228.548 144.496 227.254 144.747 225.96C144.811 225.636 144.869 225.311 144.939 224.989L145.146 224.022L145.56 222.088L145.974 220.155C146.009 219.993 146.041 219.832 146.079 219.671L146.192 219.19L146.419 218.227L147.327 214.376C147.4 214.055 147.482 213.736 147.564 213.416C147.643 213.096 147.723 212.776 147.799 212.456C147.952 211.814 148.103 211.172 148.249 210.529C148.398 209.886 148.543 209.242 148.697 208.601C148.845 207.957 149.031 207.325 149.217 206.691C149.407 206.06 149.609 205.431 149.82 204.805C150.033 204.18 150.258 203.558 150.486 202.937L150.838 202.01C150.897 201.856 150.963 201.703 151.027 201.55C151.092 201.398 151.155 201.244 151.222 201.092C151.488 200.483 151.757 199.877 152.044 199.276C152.327 198.674 152.622 198.076 152.932 197.485C153.242 196.893 153.564 196.305 153.921 195.73C153.989 195.619 154.135 195.585 154.246 195.654C154.322 195.701 154.362 195.783 154.358 195.867V195.87C154.21 198.574 153.701 201.148 153.2 203.72C153.07 204.362 152.939 205.002 152.794 205.64C152.648 206.277 152.492 206.91 152.326 207.54C151.979 208.797 151.63 210.054 151.266 211.307C151.084 211.934 150.907 212.562 150.732 213.191C150.643 213.504 150.56 213.82 150.475 214.135C150.392 214.45 150.307 214.765 150.236 215.084L149.338 218.893L149.114 219.846L149.002 220.322C148.965 220.481 148.933 220.64 148.898 220.799L148.488 222.713L148.079 224.626L147.874 225.584C147.805 225.902 147.748 226.224 147.685 226.543C146.633 231.656 145.926 236.83 145.239 241.994L144.973 243.929C144.89 244.575 144.807 245.221 144.716 245.866L144.186 249.736C144.09 250.381 144.013 251.026 143.925 251.671C143.88 251.993 143.832 252.316 143.772 252.637C143.713 252.958 143.655 253.279 143.582 253.6C143.438 254.241 143.26 254.88 143.048 255.517C142.943 255.836 142.817 256.156 142.688 256.474C142.555 256.792 142.411 257.111 142.234 257.428L142.232 257.432C142.163 257.555 142.007 257.599 141.884 257.53C141.832 257.5 141.795 257.458 141.773 257.41Z" fill="#00227B"/>
<path d="M170.462 235.99C164.827 238.263 156.106 237.787 150.161 237.07C146.595 236.641 144.091 233.363 144.617 229.824C145.097 226.594 147.951 224.245 151.225 224.398C156.786 224.658 165.128 224.779 170.411 223.612" fill="white"/>
<g opacity="0.35">
<g opacity="0.35">
<g opacity="0.35">
<g opacity="0.35">
<path opacity="0.35" d="M170.464 235.989C164.827 238.265 156.106 237.785 150.161 237.073C146.595 236.642 144.092 233.363 144.618 229.826C144.722 229.104 144.95 228.426 145.273 227.808C146.212 229.593 147.99 230.909 150.161 231.172C156.095 231.889 164.802 232.364 170.439 230.103L170.464 235.989Z" fill="#00227B"/>
</g>
</g>
</g>
</g>
<path d="M159.259 239.153C155.998 239.153 152.757 238.885 149.981 238.551C147.855 238.294 145.968 237.219 144.668 235.523C143.366 233.823 142.822 231.722 143.136 229.606C143.422 227.678 144.411 225.933 145.92 224.694C147.431 223.452 149.34 222.819 151.294 222.91C159.487 223.292 166.16 223.025 170.086 222.158C170.874 221.984 172.832 221.978 173.988 225.679C175.162 229.44 175.032 235.757 171.024 237.373C167.719 238.705 163.474 239.153 159.259 239.153ZM150.921 225.882C148.507 225.882 146.455 227.633 146.098 230.042C145.903 231.354 146.24 232.659 147.048 233.714C147.854 234.765 149.023 235.431 150.341 235.59C158.842 236.614 165.79 236.266 169.901 234.608C171.122 234.116 171.473 232.145 171.567 231.321C171.896 228.436 171.015 225.771 170.463 225.126C165.105 226.248 157.032 226.162 151.155 225.888C151.076 225.883 150.998 225.882 150.921 225.882Z" fill="#00227B"/>
<path d="M213.566 235.99C219.201 238.263 227.923 237.787 233.868 237.07C237.434 236.641 239.937 233.363 239.412 229.824C238.932 226.594 236.078 224.245 232.804 224.398C227.243 224.658 218.901 224.779 213.618 223.612" fill="white"/>
<g opacity="0.35">
<g opacity="0.35">
<g opacity="0.35">
<g opacity="0.35">
<path opacity="0.35" d="M233.866 237.073C227.921 237.785 219.2 238.265 213.563 235.989L213.587 230.048C219.224 232.309 227.931 231.834 233.866 231.117C236.027 230.859 237.795 229.553 238.738 227.777C239.071 228.401 239.304 229.089 239.414 229.825C239.936 233.363 237.433 236.642 233.866 237.073Z" fill="#00227B"/>
</g>
</g>
</g>
</g>
<path d="M224.77 239.153C220.555 239.153 216.31 238.705 213.004 237.373C208.997 235.757 208.867 229.439 210.041 225.679C211.196 221.978 213.155 221.984 213.943 222.157C217.869 223.025 224.543 223.292 232.734 222.91C234.691 222.819 236.598 223.452 238.109 224.693C239.617 225.933 240.606 227.677 240.893 229.606C241.207 231.722 240.662 233.823 239.361 235.522C238.061 237.219 236.174 238.294 234.048 238.55C231.272 238.885 228.03 239.153 224.77 239.153ZM213.566 225.126C213.014 225.771 212.133 228.436 212.462 231.321C212.556 232.145 212.906 234.116 214.128 234.609C218.24 236.266 225.187 236.615 233.689 235.59C235.006 235.431 236.176 234.765 236.981 233.714C237.789 232.659 238.127 231.355 237.932 230.042C237.563 227.556 235.389 225.771 232.875 225.888C226.997 226.162 218.924 226.247 213.566 225.126Z" fill="#00227B"/>
<path d="M215.744 219.522V239.358C215.744 243.038 212.72 246.051 209.025 246.051H172.347C168.657 246.051 165.632 243.038 165.632 239.358V219.522C165.632 215.842 168.657 212.834 172.347 212.834H209.025C211.2 212.834 213.142 213.878 214.373 215.485C215.232 216.608 215.744 218.008 215.744 219.522Z" fill="white"/>
<g opacity="0.35">
<g opacity="0.35">
<g opacity="0.35">
<g opacity="0.35">
<path opacity="0.35" d="M215.743 219.522V239.358C215.743 243.038 212.72 246.049 209.025 246.049H172.348C168.653 246.049 165.63 243.038 165.63 239.358V231.939C171.138 237.532 181.972 241.044 191.907 241.096C195.1 241.113 197.675 238.598 197.903 235.426C197.905 235.394 197.908 235.362 197.91 235.331C198.155 232.548 200.456 230.295 203.253 230.094C206.439 229.865 209.129 232.209 209.444 235.255C214.253 229.342 212.844 219.064 214.374 215.485C215.234 216.609 215.743 218.007 215.743 219.522Z" fill="#00227B"/>
</g>
</g>
</g>
</g>
<path d="M209.026 247.541H172.347C167.819 247.541 164.134 243.871 164.134 239.361V219.522C164.134 215.012 167.819 211.342 172.347 211.342H209.026C213.554 211.342 217.239 215.012 217.239 219.522V239.361C217.239 243.871 213.554 247.541 209.026 247.541ZM172.347 214.323C169.469 214.323 167.128 216.655 167.128 219.522V239.361C167.128 242.227 169.469 244.559 172.347 244.559H209.026C211.904 244.559 214.246 242.227 214.246 239.361V219.522C214.246 216.655 211.904 214.323 209.026 214.323H172.347Z" fill="#00227B"/>
<path d="M203.68 235.21C206.879 235.21 209.473 232.627 209.473 229.441C209.473 226.255 206.879 223.672 203.68 223.672C200.481 223.672 197.888 226.255 197.888 229.441C197.888 232.627 200.481 235.21 203.68 235.21Z" fill="#22A7F0"/>
<g opacity="0.7">
<g opacity="0.7">
<g opacity="0.7">
<g opacity="0.7">
<path opacity="0.7" d="M209.472 229.441C209.472 229.836 209.435 230.219 209.36 230.594C208.825 227.956 206.485 225.971 203.682 225.971C200.875 225.971 198.535 227.956 198 230.594C197.925 230.219 197.887 229.837 197.887 229.441C197.887 226.253 200.481 223.673 203.682 223.673C206.878 223.673 209.472 226.253 209.472 229.441Z" fill="white"/>
</g>
</g>
</g>
</g>
<g opacity="0.35">
<g opacity="0.35">
<g opacity="0.35">
<g opacity="0.35">
<path opacity="0.35" d="M209.471 229.44C209.471 232.625 206.879 235.208 203.68 235.208C200.482 235.208 197.89 232.625 197.89 229.44C197.89 228.703 198.029 228 198.287 227.353C199.122 229.505 201.223 231.028 203.681 231.028C206.14 231.028 208.24 229.505 209.075 227.353C209.332 228 209.471 228.703 209.471 229.44Z" fill="#00227B"/>
</g>
</g>
</g>
</g>
<path d="M203.68 236.328C199.868 236.328 196.766 233.238 196.766 229.441C196.766 225.643 199.868 222.554 203.68 222.554C207.493 222.554 210.595 225.643 210.595 229.441C210.595 233.238 207.493 236.328 203.68 236.328ZM203.68 224.79C201.106 224.79 199.011 226.877 199.011 229.441C199.011 232.005 201.106 234.091 203.68 234.091C206.255 234.091 208.35 232.005 208.35 229.441C208.35 226.877 206.255 224.79 203.68 224.79Z" fill="#00227B"/>
<path d="M187.268 247.168C186.647 247.168 186.145 246.667 186.145 246.05V232.463L178.81 226.963V212.833C178.81 212.215 179.313 211.715 179.933 211.715C180.552 211.715 181.055 212.215 181.055 212.833V225.847L188.39 231.347V246.05C188.39 246.667 187.887 247.168 187.268 247.168Z" fill="#00227B"/>
<path d="M191.406 256.73C197.894 256.73 204.133 254.332 209.006 250.065C215.756 244.155 227.119 237.107 239.662 241.628C244.694 243.441 248.124 246.767 250.464 250.447C256.49 236.541 269.13 235.707 274.602 243.589C274.602 243.589 265.405 287.29 262.408 288.263C258.114 289.656 247.796 288.191 247.796 288.191C247.796 288.191 211.902 283.351 191.406 283.351C170.909 283.351 135.015 288.191 135.015 288.191C135.015 288.191 124.698 289.655 120.404 288.263C117.407 287.29 108.21 243.589 108.21 243.589C113.68 235.707 126.322 236.541 132.348 250.447C134.687 246.766 138.117 243.441 143.15 241.628C155.692 237.107 167.055 244.155 173.805 250.065C178.678 254.332 184.917 256.73 191.406 256.73Z" fill="white"/>
<g opacity="0.35">
<path d="M274.603 243.587C274.603 243.587 265.405 287.29 262.408 288.263C258.116 289.657 247.796 288.192 247.796 288.192C247.796 288.192 211.904 283.351 191.405 283.351C170.911 283.351 135.015 288.192 135.015 288.192C135.015 288.192 124.698 289.657 120.407 288.263C117.409 287.29 108.212 243.587 108.212 243.587C109.114 242.29 110.206 241.228 111.434 240.423C114.383 253.237 118.565 269.967 120.407 270.564C124.699 271.954 135.015 270.489 135.015 270.489C135.015 270.489 170.911 260.806 191.405 260.806C211.904 260.806 247.796 270.489 247.796 270.489C247.796 270.489 258.116 271.954 262.408 270.564C264.249 269.967 268.432 253.237 271.381 240.423C272.609 241.229 273.701 242.291 274.603 243.587Z" fill="#00227B"/>
</g>
<path d="M125.938 290.35C123.687 290.35 121.487 290.182 119.941 289.681C118.886 289.338 117.999 288.174 116.335 283.009C115.36 279.986 114.191 275.777 112.861 270.497C110.465 260.993 108.13 250.333 107.237 246.192C106.77 244.023 107.483 241.781 109.1 240.34C112.203 237.573 116.363 236.507 120.512 237.417C123.126 237.99 125.67 239.35 127.869 241.349C129.69 243.005 131.273 245.073 132.592 247.519C135.27 244.115 138.642 241.667 142.642 240.226C147.175 238.592 151.917 238.267 156.739 239.261C160.631 240.065 164.589 241.729 168.503 244.21C169.2 244.653 169.405 245.574 168.962 246.269C168.518 246.964 167.593 247.168 166.895 246.726C158.841 241.619 151.024 240.376 143.661 243.03C139.508 244.527 136.128 247.29 133.614 251.246C133.317 251.713 132.784 251.977 132.232 251.935C131.679 251.891 131.195 251.547 130.975 251.039C128.457 245.228 124.409 241.325 119.868 240.33C116.671 239.629 113.474 240.443 111.097 242.563C110.279 243.292 109.922 244.443 110.165 245.568C111.007 249.477 113.215 259.563 115.516 268.778C116.78 273.843 117.901 277.965 118.847 281.025C120.172 285.312 120.864 286.569 121.11 286.92C124.491 287.864 132.097 287.102 134.806 286.717C134.809 286.717 134.812 286.717 134.815 286.716C135.175 286.667 171.045 281.862 191.407 281.862C211.769 281.862 247.638 286.667 247.998 286.716C248.001 286.717 248.005 286.717 248.008 286.717C250.718 287.102 258.323 287.864 261.704 286.92C261.946 286.576 262.619 285.355 263.899 281.243C264.823 278.278 265.917 274.283 267.151 269.367C269.351 260.603 271.46 251.067 272.521 246.163C272.869 244.556 272.264 242.909 270.981 241.967C268.531 240.168 265.495 239.631 262.434 240.455C258.047 241.636 254.284 245.395 251.839 251.04C251.62 251.547 251.136 251.892 250.582 251.936C250.028 251.979 249.497 251.713 249.2 251.246C246.686 247.292 243.306 244.527 239.154 243.031C231.726 240.354 223.842 241.64 215.719 246.855C215.024 247.301 214.098 247.101 213.65 246.409C213.202 245.717 213.402 244.795 214.098 244.348C218.034 241.821 222.018 240.119 225.938 239.291C230.807 238.262 235.596 238.577 240.172 240.227C244.173 241.668 247.544 244.117 250.223 247.521C253.035 242.316 257.028 238.821 261.653 237.577C265.557 236.525 269.604 237.251 272.758 239.566C274.988 241.204 276.043 244.039 275.448 246.791C274.324 251.986 272.096 262.052 269.804 271.088C268.505 276.213 267.363 280.295 266.411 283.222C264.787 288.215 263.915 289.345 262.872 289.682C258.321 291.159 248.113 289.744 247.593 289.67C247.03 289.595 211.508 284.844 191.407 284.844C171.303 284.844 135.785 289.595 135.222 289.67C134.876 289.717 130.311 290.35 125.938 290.35Z" fill="#00227B"/>
<path d="M259.742 288.263H262.408C265.538 288.263 268.376 286.435 269.65 283.588C273.64 274.688 280.916 255.131 274.101 243.197C273.903 242.848 273.691 242.513 273.466 242.192C273.466 242.192 266.923 236.265 262.223 244.65C257.833 252.483 248.617 285.976 259.742 288.263Z" fill="#AFAFB2"/>
<g opacity="0.7">
<g opacity="0.7">
<g opacity="0.7">
<g opacity="0.7">
<path opacity="0.7" d="M259.816 250.233C259.933 250.045 260.051 249.868 260.166 249.703C265.945 241.318 273.99 247.246 273.99 247.246C274.266 247.567 274.528 247.902 274.77 248.25C275.577 249.399 276.223 250.618 276.727 251.894C276.401 248.759 275.587 245.796 274.101 243.197C273.903 242.849 273.691 242.514 273.466 242.193C273.466 242.193 266.924 236.265 262.223 244.65C261.51 245.92 260.673 247.859 259.816 250.233Z" fill="white"/>
</g>
</g>
</g>
</g>
<path d="M276.691 252.788C276.624 252.788 276.556 252.782 276.487 252.771L260.133 250.052C259.461 249.94 259.007 249.307 259.119 248.636C259.231 247.967 259.868 247.514 260.539 247.626L276.892 250.345C277.564 250.456 278.019 251.09 277.907 251.76C277.806 252.363 277.284 252.788 276.691 252.788Z" fill="#00227B"/>
<path d="M276.587 261.588C276.532 261.588 276.477 261.585 276.421 261.576L257.291 259.015C256.616 258.925 256.142 258.306 256.232 257.633C256.323 256.96 256.944 256.488 257.62 256.579L276.75 259.14C277.426 259.23 277.9 259.849 277.809 260.522C277.726 261.14 277.196 261.588 276.587 261.588Z" fill="#00227B"/>
<path d="M274.9 270.207C274.85 270.207 274.8 270.204 274.749 270.198L255.329 267.831C254.653 267.748 254.171 267.135 254.254 266.462C254.337 265.788 254.951 265.308 255.629 265.391L275.048 267.758C275.725 267.841 276.206 268.454 276.124 269.127C276.047 269.751 275.515 270.207 274.9 270.207Z" fill="#00227B"/>
<path d="M271.82 279.607C271.783 279.607 271.746 279.606 271.708 279.603L254.346 278.042C253.667 277.982 253.167 277.383 253.228 276.707C253.289 276.031 253.889 275.532 254.568 275.594L271.93 277.154C272.609 277.215 273.11 277.813 273.048 278.489C272.99 279.127 272.451 279.607 271.82 279.607Z" fill="#00227B"/>
<g opacity="0.35">
<g opacity="0.35">
<g opacity="0.35">
<g opacity="0.35">
<path opacity="0.35" d="M259.741 288.263H262.407C265.537 288.263 268.375 286.435 269.649 283.588C270.681 281.281 271.936 278.264 273.109 274.845C271.509 277.49 268.257 279.167 264.687 279.167H261.51C256.988 278.387 255.286 273.97 255.219 268.181C253.69 277.953 254.11 287.105 259.741 288.263Z" fill="#00227B"/>
</g>
</g>
</g>
</g>
<path d="M262.408 289.492H259.743C259.659 289.492 259.576 289.484 259.493 289.467C257.338 289.023 255.71 287.632 254.653 285.33C252.161 279.903 253.372 270.449 254.827 263.474C256.606 254.95 259.353 247.25 261.146 244.051C262.795 241.109 264.872 239.415 267.319 239.017C271.073 238.408 274.167 241.165 274.297 241.282C274.365 241.344 274.426 241.413 274.479 241.488C274.725 241.839 274.959 242.21 275.176 242.589C278.291 248.044 278.951 255.505 277.141 264.764C275.668 272.292 272.868 279.428 270.778 284.089C269.308 287.371 266.023 289.492 262.408 289.492ZM259.877 287.034H262.408C265.049 287.034 267.45 285.485 268.523 283.088C270.56 278.544 273.288 271.595 274.717 264.296C276.412 255.63 275.844 248.735 273.029 243.805C272.876 243.536 272.712 243.274 272.542 243.023C272.08 242.647 269.979 241.068 267.703 241.446C266.042 241.722 264.561 243.002 263.302 245.249C261.641 248.211 258.954 255.781 257.245 263.974C255.294 273.326 255.17 280.547 256.898 284.308C257.599 285.835 258.574 286.728 259.877 287.034Z" fill="#00227B"/>
<path d="M123.071 288.263H120.406C117.276 288.263 114.438 286.435 113.164 283.588C109.173 274.688 101.897 255.131 108.712 243.197C108.911 242.848 109.123 242.513 109.348 242.192C109.348 242.192 115.89 236.265 120.591 244.65C124.981 252.483 134.196 285.976 123.071 288.263Z" fill="#AFAFB2"/>
<g opacity="0.7">
<g opacity="0.7">
<g opacity="0.7">
<g opacity="0.7">
<path opacity="0.7" d="M122.997 250.233C122.879 250.045 122.761 249.868 122.647 249.703C116.868 241.318 108.822 247.246 108.822 247.246C108.546 247.567 108.284 247.902 108.042 248.25C107.235 249.399 106.59 250.618 106.086 251.894C106.411 248.759 107.225 245.796 108.711 243.197C108.909 242.849 109.121 242.514 109.346 242.193C109.346 242.193 115.889 236.265 120.589 244.65C121.302 245.92 122.139 247.859 122.997 250.233Z" fill="white"/>
</g>
</g>
</g>
</g>
<path d="M106.121 252.788C105.529 252.788 105.006 252.362 104.905 251.761C104.793 251.091 105.247 250.458 105.92 250.346L122.273 247.627C122.945 247.515 123.581 247.967 123.693 248.637C123.805 249.307 123.351 249.94 122.678 250.052L106.325 252.771C106.257 252.783 106.189 252.788 106.121 252.788Z" fill="#00227B"/>
<path d="M106.225 261.588C105.616 261.588 105.086 261.14 105.003 260.523C104.912 259.85 105.386 259.231 106.062 259.141L125.193 256.579C125.869 256.488 126.489 256.96 126.581 257.633C126.671 258.306 126.197 258.925 125.522 259.015L106.391 261.577C106.335 261.585 106.28 261.588 106.225 261.588Z" fill="#00227B"/>
<path d="M107.913 270.207C107.298 270.207 106.766 269.751 106.689 269.127C106.606 268.454 107.088 267.841 107.765 267.758L127.184 265.39C127.861 265.308 128.476 265.787 128.559 266.462C128.642 267.135 128.161 267.748 127.484 267.831L108.064 270.198C108.013 270.205 107.962 270.207 107.913 270.207Z" fill="#00227B"/>
<path d="M110.993 279.607C110.361 279.607 109.823 279.127 109.765 278.489C109.704 277.813 110.205 277.215 110.883 277.154L128.245 275.594C128.925 275.533 129.524 276.031 129.586 276.707C129.646 277.383 129.146 277.981 128.467 278.042L111.106 279.603C111.068 279.606 111.03 279.607 110.993 279.607Z" fill="#00227B"/>
<g opacity="0.35">
<g opacity="0.35">
<g opacity="0.35">
<g opacity="0.35">
<path opacity="0.35" d="M123.07 288.263H120.405C117.275 288.263 114.437 286.435 113.163 283.588C112.131 281.281 110.876 278.264 109.703 274.845C111.303 277.49 114.555 279.167 118.125 279.167H121.302C125.824 278.387 127.526 273.97 127.593 268.181C129.122 277.953 128.701 287.105 123.07 288.263Z" fill="#00227B"/>
</g>
</g>
</g>
</g>
<path d="M123.071 289.492H120.405C116.791 289.492 113.505 287.371 112.036 284.088C109.947 279.429 107.146 272.293 105.673 264.765C103.862 255.506 104.523 248.045 107.638 242.589C107.855 242.21 108.089 241.84 108.334 241.489C108.387 241.413 108.448 241.345 108.516 241.283C108.646 241.165 111.74 238.408 115.494 239.018C117.941 239.416 120.018 241.109 121.667 244.051C123.461 247.251 126.207 254.95 127.986 263.475C129.441 270.45 130.652 279.904 128.16 285.331C127.103 287.633 125.475 289.024 123.32 289.467C123.238 289.484 123.154 289.492 123.071 289.492ZM110.27 243.024C110.1 243.274 109.937 243.536 109.784 243.804C106.968 248.735 106.4 255.629 108.096 264.296C109.524 271.596 112.251 278.544 114.289 283.088C115.363 285.486 117.763 287.034 120.404 287.034H122.936C124.238 286.729 125.214 285.836 125.915 284.308C127.642 280.547 127.519 273.325 125.569 263.974C123.859 255.78 121.172 248.211 119.511 245.249C118.252 243.002 116.771 241.722 115.11 241.446C112.838 241.069 110.738 242.643 110.27 243.024Z" fill="#00227B"/>
<path d="M153.162 287.141C152.987 287.141 152.809 287.1 152.643 287.013C152.093 286.727 151.881 286.051 152.169 285.504C156.856 276.584 156.925 266.552 152.374 255.688C148.942 247.494 144.027 241.887 143.977 241.831C143.568 241.368 143.612 240.662 144.077 240.253C144.542 239.845 145.251 239.888 145.661 240.351C145.871 240.588 150.839 246.246 154.42 254.764C156.533 259.789 157.711 264.763 157.923 269.546C158.19 275.56 156.923 281.278 154.157 286.54C153.957 286.923 153.566 287.141 153.162 287.141Z" fill="#00227B"/>
<path d="M230.106 287.141C229.701 287.141 229.311 286.923 229.11 286.541C226.345 281.278 225.078 275.561 225.345 269.547C225.557 264.764 226.735 259.79 228.848 254.764C232.429 246.247 237.397 240.588 237.607 240.352C238.018 239.889 238.727 239.845 239.192 240.254C239.657 240.662 239.701 241.368 239.29 241.831C239.241 241.887 234.326 247.494 230.893 255.688C226.343 266.552 226.412 276.584 231.099 285.504C231.386 286.051 231.174 286.726 230.625 287.013C230.459 287.1 230.281 287.141 230.106 287.141Z" fill="#00227B"/>
<g opacity="0.35">
<path d="M228.604 179.726C227.309 181.202 225.947 182.603 224.528 183.919C221.161 187.042 217.471 189.7 213.523 191.806C206.855 195.369 199.457 197.367 191.667 197.403C184.055 197.437 176.811 195.596 170.244 192.249C165.945 190.054 161.937 187.217 158.311 183.837C156.507 182.152 154.797 180.337 153.192 178.403C156.099 177.509 158.988 176.472 161.633 175.447C164.919 167.565 168.75 159.492 173.219 151.419H209.594C213.287 158.094 216.546 164.765 219.42 171.336C222.16 172.927 225.314 175.924 228.604 179.726Z" fill="#00227B"/>
</g>
<path d="M246.953 143.734C246.32 143.802 245.751 143.345 245.683 142.714L242.133 109.809C242.065 109.178 242.523 108.612 243.156 108.544C249.802 107.832 255.768 112.621 256.482 119.24L257.694 130.461C258.408 137.08 253.599 143.022 246.953 143.734Z" fill="white"/>
<path d="M246.828 144.024C246.501 144.024 246.186 143.914 245.928 143.706C245.629 143.466 245.442 143.125 245.401 142.744L241.851 109.839C241.81 109.459 241.92 109.085 242.161 108.788C242.402 108.49 242.745 108.303 243.127 108.263C249.919 107.536 256.036 112.447 256.766 119.211L257.976 130.432C258.33 133.708 257.381 136.925 255.305 139.491C253.229 142.057 250.273 143.664 246.984 144.016L246.954 143.734L246.984 144.016C246.932 144.021 246.88 144.024 246.828 144.024ZM244.459 108.757C244.039 108.757 243.615 108.779 243.188 108.825C242.957 108.849 242.749 108.962 242.604 109.142C242.458 109.322 242.391 109.547 242.416 109.778L245.966 142.683C245.991 142.913 246.105 143.12 246.286 143.265C246.467 143.41 246.693 143.476 246.924 143.452C250.063 143.116 252.882 141.582 254.863 139.135C256.844 136.687 257.749 133.617 257.412 130.491L256.201 119.27C255.55 113.242 250.414 108.757 244.459 108.757Z" fill="#00227B"/>
<g opacity="0.35">
<g opacity="0.35">
<g opacity="0.35">
<g opacity="0.35">
<path opacity="0.35" d="M257.126 125.199L257.695 130.462C258.409 137.078 253.6 143.022 246.954 143.736C246.32 143.805 245.752 143.344 245.684 142.714L244.737 133.967C244.957 134.346 245.388 134.579 245.853 134.533L246.636 134.447C251.887 133.886 255.995 130.055 257.126 125.199Z" fill="#00227B"/>
</g>
</g>
</g>
</g>
<path d="M246.826 145.318C246.204 145.318 245.605 145.108 245.114 144.714C244.544 144.257 244.188 143.607 244.11 142.883L240.56 109.978C240.482 109.254 240.691 108.543 241.15 107.976C241.608 107.409 242.261 107.054 242.988 106.976C250.49 106.173 257.25 111.599 258.057 119.072L259.267 130.293C259.658 133.913 258.61 137.468 256.316 140.303C254.022 143.138 250.757 144.914 247.122 145.302C247.024 145.312 246.925 145.318 246.826 145.318ZM246.787 142.166H246.786C246.786 142.166 246.786 142.166 246.787 142.166ZM243.755 110.074L247.212 142.113C249.834 141.726 252.179 140.392 253.852 138.324C255.616 136.145 256.421 133.413 256.121 130.63L254.911 119.409C254.306 113.807 249.349 109.701 243.755 110.074Z" fill="#00227B"/>
<path d="M134.108 120.215C134.742 120.147 135.31 120.604 135.379 121.235L138.929 154.14C138.997 154.771 138.539 155.337 137.905 155.405C131.26 156.117 125.294 151.328 124.58 144.709L123.37 133.488C122.654 126.869 127.463 120.927 134.108 120.215Z" fill="white"/>
<path d="M136.602 155.759C130.361 155.759 124.978 151.057 124.296 144.739L123.086 133.518C122.356 126.754 127.287 120.66 134.078 119.933L134.109 120.215L134.078 119.933C134.866 119.849 135.576 120.419 135.661 121.204L139.211 154.11C139.296 154.895 138.723 155.602 137.935 155.686C137.489 155.735 137.043 155.759 136.602 155.759ZM134.232 120.492C134.201 120.492 134.17 120.493 134.138 120.496C127.659 121.19 122.954 127.004 123.651 133.457L124.862 144.678C125.558 151.132 131.394 155.818 137.874 155.124C138.351 155.073 138.697 154.646 138.646 154.171L135.096 121.266C135.048 120.822 134.67 120.492 134.232 120.492Z" fill="#00227B"/>
<g opacity="0.35">
<g opacity="0.35">
<g opacity="0.35">
<g opacity="0.35">
<path opacity="0.35" d="M137.947 145.011L138.931 154.14C139 154.771 138.538 155.337 137.905 155.405C134.417 155.777 131.112 154.636 128.659 152.507C126.443 150.584 124.921 147.852 124.581 144.71L124.071 139.982C126.405 143.929 130.92 146.368 135.792 145.848L136.998 145.718C137.437 145.671 137.785 145.388 137.947 145.011Z" fill="#00227B"/>
</g>
</g>
</g>
</g>
<path d="M136.602 157.052C129.705 157.052 123.758 151.858 123.006 144.877L121.795 133.656C120.989 126.183 126.437 119.45 133.94 118.647C135.439 118.486 136.792 119.571 136.953 121.065L140.503 153.971C140.664 155.466 139.575 156.812 138.074 156.972C137.58 157.026 137.088 157.052 136.602 157.052ZM133.851 121.837C128.306 122.657 124.338 127.718 124.942 133.32L126.153 144.541C126.757 150.143 131.714 154.248 137.308 153.875L133.851 121.837Z" fill="#00227B"/>
<path d="M190.537 188.37C221.808 188.37 247.159 163.121 247.159 131.974C247.159 100.827 221.808 75.5777 190.537 75.5777C159.265 75.5777 133.914 100.827 133.914 131.974C133.914 163.121 159.265 188.37 190.537 188.37Z" fill="white"/>
<path d="M190.482 188.655C183.54 188.655 176.758 187.415 170.292 184.96C163.416 182.351 157.187 178.485 151.775 173.471C146.364 168.457 142.045 162.547 138.935 155.905C135.717 149.028 133.944 141.664 133.667 134.018C133.39 126.371 134.625 118.899 137.337 111.809C139.957 104.961 143.839 98.7565 148.873 93.3668C153.906 87.9771 159.842 83.6741 166.511 80.5773C173.416 77.3715 180.809 75.6063 188.486 75.3302C196.163 75.054 203.665 76.284 210.784 78.9859C217.66 81.5951 223.889 85.4614 229.3 90.4749C234.711 95.4893 239.031 101.399 242.14 108.041C245.359 114.918 247.131 122.282 247.408 129.929C247.685 137.575 246.451 145.047 243.738 152.137C241.118 158.986 237.236 165.19 232.202 170.58C227.167 175.969 221.234 180.271 214.565 183.368C207.661 186.574 200.267 188.339 192.59 188.615C191.885 188.642 191.182 188.655 190.482 188.655ZM190.564 75.8596C189.879 75.8596 189.196 75.8719 188.506 75.8964C157.461 77.0126 133.116 103.076 134.236 133.996C134.778 148.975 141.144 162.847 152.162 173.056C162.67 182.793 176.21 188.087 190.486 188.088C191.179 188.088 191.872 188.075 192.568 188.05C207.606 187.51 221.534 181.169 231.784 170.195C242.034 159.222 247.38 144.929 246.838 129.951C245.744 99.717 220.697 75.8596 190.564 75.8596Z" fill="#00227B"/>
<g opacity="0.35">
<g opacity="0.35">
<g opacity="0.35">
<g opacity="0.35">
<path opacity="0.35" d="M246.299 122.158C246.751 124.694 247.029 127.292 247.125 129.941C248.248 161.067 223.829 187.21 192.578 188.335C161.327 189.454 135.079 165.133 133.95 134.007C133.917 133.112 133.905 132.216 133.916 131.332C138.724 158.63 163.125 178.904 191.718 177.877C222.071 176.785 245.975 152.095 246.299 122.158Z" fill="#00227B"/>
</g>
</g>
</g>
</g>
<path d="M190.482 189.948C183.38 189.948 176.444 188.679 169.83 186.169C162.797 183.5 156.425 179.546 150.891 174.418C145.357 169.29 140.939 163.244 137.759 156.451C134.466 149.417 132.654 141.884 132.371 134.064C132.088 126.243 133.351 118.6 136.126 111.348C138.806 104.344 142.776 97.9969 147.924 92.4851C153.073 86.9733 159.141 82.5719 165.963 79.4055C173.025 76.1259 180.588 74.3206 188.44 74.0387C196.292 73.7568 203.965 75.0147 211.247 77.7788C218.279 80.4478 224.651 84.4018 230.185 89.5301C235.719 94.6584 240.137 100.704 243.317 107.497C246.61 114.531 248.422 122.064 248.705 129.884C248.988 137.705 247.725 145.348 244.95 152.6C242.27 159.604 238.301 165.951 233.152 171.463C228.003 176.975 221.933 181.375 215.113 184.543C208.05 187.822 200.487 189.627 192.636 189.909C191.917 189.935 191.198 189.948 190.482 189.948ZM190.564 77.1535C189.895 77.1535 189.228 77.1658 188.554 77.1896C158.225 78.2795 134.44 103.742 135.534 133.951C136.064 148.584 142.284 162.136 153.048 172.11C163.313 181.623 176.541 186.795 190.489 186.795C191.165 186.795 191.843 186.783 192.523 186.758C207.215 186.231 220.821 180.035 230.836 169.315C240.85 158.595 246.073 144.632 245.543 129.998C244.472 100.46 220.002 77.1535 190.564 77.1535Z" fill="#00227B"/>
<path d="M246.996 131.395C247.563 142.416 244.496 152.832 238.789 161.611C234.51 168.193 216.148 180.267 192.78 181.669C171.113 182.968 150.798 172.463 145.866 166.351C139.287 158.198 135.169 148.149 134.602 137.128C133.103 107.962 157.64 94.5871 188.678 93.0038C219.715 91.4206 245.496 102.229 246.996 131.395Z" fill="#3949AB"/>
<path d="M189.019 182.864C178.245 182.864 168.874 180.19 162.654 177.8C154.778 174.774 147.854 170.547 145.017 167.03C138.052 158.399 134.075 148.078 133.514 137.183C133.143 129.953 134.34 123.393 137.07 117.685C139.642 112.312 143.585 107.658 148.793 103.849C158.308 96.8898 172.08 92.7654 188.621 91.9221C205.162 91.0789 219.285 93.7799 229.463 99.7342C235.034 102.993 239.435 107.223 242.544 112.306C245.846 117.706 247.71 124.11 248.081 131.34C248.641 142.235 245.742 152.906 239.7 162.2C237.19 166.062 230.954 170.795 223.428 174.552C216.817 177.852 206.145 181.953 192.844 182.75C191.552 182.827 190.275 182.864 189.019 182.864ZM194.461 93.9372C192.588 93.9372 190.679 93.9864 188.732 94.0856C172.617 94.9075 159.252 98.8877 150.081 105.595C139.841 113.084 134.999 123.675 135.687 137.072C136.224 147.509 140.036 157.399 146.712 165.673C148.698 168.134 154.27 172.258 163.437 175.779C170.182 178.369 180.734 181.306 192.714 180.588C205.647 179.812 216.026 175.823 222.455 172.614C231.07 168.314 236.147 163.682 237.876 161.023C243.668 152.113 246.447 141.887 245.91 131.45C245.222 118.054 239.317 108.011 228.363 101.603C219.737 96.5563 208.099 93.9372 194.461 93.9372Z" fill="#00227B"/>
<g opacity="0.5">
<g opacity="0.5">
<g opacity="0.5">
<g opacity="0.5">
<path d="M235.723 129.287C236.429 123.82 233.778 118.975 229.801 118.464C225.824 117.954 222.027 121.973 221.32 127.44C220.613 132.906 223.265 137.752 227.242 138.262C231.219 138.772 235.016 134.753 235.723 129.287Z" fill="white"/>
</g>
</g>
</g>
</g>
<g opacity="0.5">
<g opacity="0.5">
<g opacity="0.5">
<g opacity="0.5">
<path d="M224.468 149.607C225.138 147.166 223.976 144.724 221.874 144.152C219.771 143.579 217.524 145.094 216.854 147.534C216.184 149.975 217.346 152.417 219.449 152.989C221.551 153.561 223.799 152.047 224.468 149.607Z" fill="white"/>
</g>
</g>
</g>
</g>
<g opacity="0.35">
<path d="M234.667 104.743C241.873 110.922 246.391 119.679 246.995 131.393C247.562 142.417 244.494 152.832 238.79 161.611C234.51 168.193 216.146 180.267 192.778 181.671C184.528 182.169 176.475 180.951 169.39 178.913C198.077 176.577 220.439 161.767 225.746 153.603C232.991 142.461 236.882 129.24 236.16 115.254C235.971 111.516 235.458 108.016 234.667 104.743Z" fill="#00227B"/>
</g>
<path d="M137.555 113.558C137.236 113.558 136.915 113.459 136.64 113.253C135.993 112.768 135.844 111.869 136.285 111.206C138.634 107.361 141.635 103.847 145.203 100.763C148.676 97.7601 152.716 95.1386 157.209 92.9711C161.608 90.8494 166.471 89.1498 171.661 87.919C176.804 86.6996 182.294 85.9342 187.981 85.6441C193.574 85.3589 199.055 85.5515 204.27 86.2153C209.533 86.8856 214.537 88.0386 219.142 89.6407C223.854 91.2805 228.166 93.398 231.957 95.9343C235.854 98.5419 239.225 101.608 241.978 105.049C242.459 105.58 242.508 106.392 242.058 106.982C241.55 107.649 240.594 107.778 239.925 107.272L239.765 107.154L239.645 107.001C229.452 94.2044 210.677 87.524 188.137 88.6737C165.471 89.83 147.512 98.6312 138.863 112.82L138.824 112.885L138.772 112.953C138.474 113.349 138.017 113.558 137.555 113.558Z" fill="#00227B"/>
<g opacity="0.5">
<g opacity="0.5">
<g opacity="0.5">
<g opacity="0.5">
<path d="M148.115 153.834C148.115 153.834 137.566 125.525 152.545 113.265C167.524 101.004 189.926 99.9088 189.476 101.366C189.476 101.366 164.986 108.61 156.287 128.63C149.579 144.068 148.115 153.834 148.115 153.834Z" fill="white"/>
</g>
</g>
</g>
</g>
<path d="M241.853 291.508H141.43C138.178 291.508 135.542 288.882 135.542 285.644C135.542 283.778 137.061 282.265 138.935 282.265H244.348C246.222 282.265 247.741 283.778 247.741 285.644C247.741 288.883 245.105 291.508 241.853 291.508Z" fill="#E6E9FA"/>
<g opacity="0.3">
<g opacity="0.3">
<g opacity="0.3">
<g opacity="0.3">
<path opacity="0.3" d="M247.739 285.644C247.739 286.285 247.635 286.901 247.444 287.478C246.916 286.297 245.73 285.477 244.349 285.477H138.935C138 285.477 137.151 285.853 136.537 286.469C136.245 286.76 136.006 287.099 135.838 287.479C135.647 286.902 135.542 286.287 135.542 285.645C135.542 284.714 135.92 283.868 136.538 283.257C137.152 282.642 138.001 282.265 138.936 282.265H244.349C246.224 282.264 247.739 283.777 247.739 285.644Z" fill="white"/>
</g>
</g>
</g>
</g>
<g opacity="0.35">
<g opacity="0.35">
<g opacity="0.35">
<g opacity="0.35">
<path opacity="0.35" d="M247.739 285.645C247.739 287.262 247.081 288.731 246.014 289.789C244.951 290.851 243.476 291.507 241.853 291.507H141.432C138.18 291.507 135.542 288.883 135.542 285.645C135.542 285.022 135.71 284.437 136.009 283.934C136.899 286.032 138.995 287.508 141.431 287.508H241.852C243.476 287.508 244.951 286.852 246.013 285.79C246.544 285.26 246.975 284.631 247.27 283.934C247.571 284.437 247.739 285.022 247.739 285.645Z" fill="#00227B"/>
</g>
</g>
</g>
</g>
<path d="M241.854 292.999H141.431C137.359 292.999 134.046 289.7 134.046 285.645C134.046 282.96 136.24 280.775 138.935 280.775H244.349C247.044 280.775 249.238 282.96 249.238 285.645C249.238 289.699 245.925 292.999 241.854 292.999ZM138.934 283.757C137.889 283.757 137.039 284.603 137.039 285.645C137.039 288.056 139.008 290.018 141.43 290.018H241.854C244.275 290.018 246.245 288.056 246.245 285.645C246.245 284.604 245.395 283.757 244.349 283.757H138.934Z" fill="#00227B"/>
<path d="M253.603 216.244L243.781 282.263H139.505L139.149 279.875L129.678 216.244C129.367 214.154 130.995 212.279 133.113 212.279H250.167C252.29 212.279 253.913 214.154 253.603 216.244Z" fill="#FF66AC"/>
<path d="M253.603 216.244L243.781 282.263H139.505L139.149 279.875L129.678 216.244C129.367 214.154 130.995 212.279 133.113 212.279H250.167C252.29 212.279 253.913 214.154 253.603 216.244Z" fill="#E6E9FA"/>
<g opacity="0.5">
<g opacity="0.5">
<g opacity="0.5">
<g opacity="0.5">
<path opacity="0.5" d="M133.38 220.342C133.07 218.252 134.698 216.377 136.815 216.377H253.583L253.603 216.245C253.913 214.154 252.29 212.279 250.168 212.279H133.114C130.996 212.279 129.369 214.154 129.679 216.245L139.15 279.876L139.505 282.264H142.598L133.38 220.342Z" fill="white"/>
</g>
</g>
</g>
</g>
<g opacity="0.35">
<g opacity="0.35">
<g opacity="0.35">
<g opacity="0.35">
<path opacity="0.35" d="M246.877 212.279H238.657C241.774 223.651 240.054 249.332 219.948 262.753C194.707 279.602 149.218 279.494 139.561 279.875L139.916 282.263H240.49L250.312 216.244C250.622 214.154 248.999 212.279 246.877 212.279Z" fill="#00227B"/>
</g>
</g>
</g>
</g>
<path d="M245.07 283.757H138.213L128.2 216.462C127.987 215.037 128.408 213.595 129.352 212.504C130.297 211.413 131.668 210.788 133.114 210.788H250.17C251.616 210.788 252.987 211.413 253.932 212.504C254.876 213.595 255.296 215.037 255.084 216.462L245.07 283.757ZM140.796 280.774H242.488L252.123 216.024C252.209 215.45 252.046 214.891 251.665 214.451C251.284 214.011 250.753 213.769 250.17 213.769H133.114C132.531 213.769 132 214.012 131.619 214.451C131.238 214.891 131.075 215.45 131.161 216.024L140.796 280.774Z" fill="#00227B"/>
<g opacity="0.3">
<g opacity="0.3">
<g opacity="0.3">
<g opacity="0.3">
<path opacity="0.3" d="M147.805 266.839C143.849 258.155 140.969 243.329 141.618 234.604C142.267 225.88 147.348 228.549 148.922 239.725C153.113 269.469 149.571 270.717 147.805 266.839Z" fill="white"/>
</g>
</g>
</g>
</g>
<path d="M205.265 239.781C205.393 238.666 205.541 237.54 205.321 236.406C205.223 236.283 205.134 236.157 205.036 236.034C204.712 235.918 204.396 235.766 204.059 235.682C201.686 235.071 199.28 234.83 196.837 235.039C193.65 235.313 190.725 236.292 188.21 238.31C187.299 239.038 186.469 239.86 185.619 240.657C185.391 240.873 185.216 240.963 184.896 240.818C184.143 240.477 183.332 240.324 182.508 240.283C180.299 240.183 178.328 240.895 176.489 242.044C174.496 243.295 172.89 244.966 171.395 246.755C170.758 247.513 171.005 248.358 171.953 248.676C172.551 248.871 173.15 249.062 173.748 249.257C175.181 249.719 176.611 250.177 178.04 250.638C178.037 250.682 178.041 250.705 178.034 250.728C178.023 250.755 178.01 250.787 177.991 250.814C177.394 251.578 177.539 252.285 178.168 252.948C178.235 253.022 178.293 253.11 178.353 253.189C178.682 253.62 179.018 254.056 179.367 254.505C178.891 254.872 178.423 255.183 178.009 255.559C177.8 255.749 177.616 256.024 177.537 256.297C177.402 256.737 177.631 257.187 178.024 257.418C178.442 257.668 178.871 257.657 179.259 257.378C179.752 257.029 180.223 256.651 180.724 256.27C181.197 256.891 181.645 257.478 182.095 258.059C182.611 258.72 182.967 258.833 183.766 258.613C183.912 258.568 184.056 258.536 184.228 258.495C184.24 258.665 184.253 258.802 184.26 258.93C184.362 260.988 184.456 263.05 184.569 265.103C184.621 266.076 185.393 266.536 186.276 266.119C187.073 265.744 187.87 265.348 188.651 264.926C190.452 263.95 192.091 262.755 193.399 261.166C195.035 259.167 195.941 256.933 195.517 254.295C195.499 254.191 195.586 254.013 195.677 253.96C196.48 253.444 197.304 252.961 198.108 252.442C199.925 251.263 201.385 249.73 202.527 247.9C204.079 245.411 204.935 242.68 205.265 239.781ZM179.222 248.689C177.568 248.152 175.852 247.595 174.09 247.024C175.911 245.096 177.838 243.413 180.433 242.702C181.554 242.395 182.85 242.421 183.615 242.731C182.162 244.706 180.706 246.681 179.222 248.689ZM193.139 257.16C192.719 258.496 191.916 259.584 190.927 260.555C189.698 261.747 188.267 262.637 186.72 263.448C186.627 261.555 186.532 259.703 186.438 257.89C188.777 256.983 191.064 256.099 193.363 255.209C193.452 255.84 193.343 256.509 193.139 257.16ZM201.777 244.486C201.024 246.255 200.037 247.866 198.628 249.2C197.541 250.224 196.309 251.045 195.01 251.775C191.491 253.754 187.718 255.118 183.861 256.272C183.673 256.326 183.558 256.316 183.433 256.144C183.164 255.763 182.862 255.396 182.578 255.02C182.559 254.999 182.552 254.963 182.525 254.896C182.624 254.818 182.729 254.74 182.835 254.659C185.036 252.975 187.248 251.298 189.449 249.611C190.085 249.13 190.113 248.304 189.524 247.827C189.113 247.491 188.571 247.496 188.096 247.852C186.771 248.858 185.45 249.865 184.128 250.875C183.143 251.626 182.165 252.373 181.142 253.155C180.791 252.698 180.452 252.28 180.146 251.841C180.094 251.763 180.146 251.564 180.217 251.467C181.39 249.723 182.554 247.97 183.775 246.257C184.983 244.555 186.356 242.984 187.866 241.541C189.282 240.178 190.818 238.975 192.673 238.258C193.863 237.797 195.09 237.483 196.358 237.348C196.473 237.332 196.64 237.446 196.722 237.552C198.011 239.212 199.285 240.875 200.562 242.541C200.946 243.037 201.324 243.542 201.719 244.032C201.838 244.18 201.852 244.306 201.777 244.486ZM202.541 242.163C201.267 240.501 200.023 238.884 198.778 237.26C198.779 237.223 198.79 237.18 198.796 237.14C200.246 237.313 201.7 237.49 203.169 237.665C203.142 239.241 202.908 240.684 202.541 242.163Z" fill="#00227B"/>
<path d="M201.721 244.032C201.325 243.542 200.948 243.036 200.564 242.54C199.287 240.874 198.013 239.211 196.724 237.551C196.642 237.445 196.475 237.331 196.36 237.347C195.092 237.482 193.865 237.796 192.675 238.258C190.819 238.975 189.284 240.178 187.868 241.54C186.358 242.983 184.985 244.554 183.777 246.256C182.556 247.97 181.392 249.723 180.219 251.466C180.148 251.563 180.096 251.762 180.148 251.84C180.453 252.28 180.792 252.697 181.144 253.154C182.167 252.372 183.145 251.624 184.131 250.874C185.452 249.864 186.773 248.857 188.098 247.851C188.573 247.496 189.114 247.491 189.526 247.826C190.115 248.304 190.088 249.13 189.451 249.611C187.25 251.297 185.038 252.975 182.837 254.658C182.731 254.739 182.625 254.817 182.527 254.895C182.554 254.963 182.561 254.998 182.58 255.019C182.864 255.395 183.166 255.762 183.435 256.143C183.56 256.316 183.675 256.325 183.863 256.271C187.72 255.117 191.493 253.753 195.012 251.774C196.31 251.045 197.543 250.223 198.63 249.199C200.038 247.865 201.026 246.254 201.779 244.485C201.853 244.306 201.838 244.18 201.721 244.032ZM197.858 246.569C196.176 247.832 193.795 247.523 192.531 245.87C191.259 244.219 191.58 241.849 193.247 240.569C194.883 239.314 197.265 239.638 198.541 241.29C199.803 242.931 199.495 245.336 197.858 246.569Z" fill="white"/>
<path d="M202.541 242.162C201.266 240.503 200.022 238.884 198.777 237.26C198.782 237.222 198.79 237.182 198.796 237.14C200.246 237.314 201.701 237.491 203.171 237.666C203.143 239.239 202.907 240.684 202.541 242.162Z" fill="#DB2C2C"/>
<path d="M183.616 242.732C182.161 244.704 180.705 246.681 179.223 248.69C177.566 248.15 175.85 247.595 174.089 247.024C175.911 245.094 177.837 243.411 180.432 242.702C181.554 242.394 182.848 242.421 183.616 242.732Z" fill="#DB2C2C"/>
<path d="M190.925 260.555C189.697 261.748 188.267 262.639 186.719 263.448C186.625 261.557 186.531 259.705 186.438 257.89C188.777 256.984 191.063 256.101 193.365 255.208C193.453 255.841 193.342 256.508 193.141 257.161C192.72 258.498 191.917 259.585 190.925 260.555Z" fill="#DB2C2C"/>
<path d="M198.54 241.29C197.265 239.638 194.882 239.315 193.246 240.569C191.579 241.85 191.258 244.219 192.53 245.87C193.794 247.523 196.175 247.832 197.857 246.569C199.494 245.336 199.802 242.931 198.54 241.29ZM196.723 245.175C195.871 245.818 194.619 245.648 193.955 244.8C193.268 243.926 193.455 242.641 194.365 241.969C195.216 241.333 196.492 241.517 197.133 242.37C197.803 243.256 197.619 244.501 196.723 245.175Z" fill="#00227B"/>
<path d="M196.722 245.175C195.87 245.818 194.618 245.648 193.952 244.799C193.268 243.926 193.454 242.641 194.363 241.969C195.216 241.335 196.49 241.517 197.131 242.368C197.801 243.256 197.619 244.502 196.722 245.175Z" fill="#22A7F0"/>
<path d="M253.085 219.728C253.085 219.728 245.004 215.908 237.415 219.334C230.148 222.615 225.006 245.975 234.422 251.893C240.233 255.545 244.189 252.319 247.477 253.266C252.353 254.671 262.358 230.618 253.085 219.728Z" fill="white"/>
<g opacity="0.35">
<path d="M256.732 234.93C255.774 244.721 250.584 254.161 247.478 253.266C244.189 252.32 240.234 255.547 234.423 251.895C229.924 249.066 228.75 242.261 229.543 235.559C230.078 239.469 231.593 242.819 234.423 244.597C240.234 248.245 244.103 246.55 247.478 245.969C251.65 245.249 255.052 240.71 256.732 234.93Z" fill="#00227B"/>
</g>
<path d="M240.381 255.17C238.42 255.17 236.151 254.743 233.623 253.154C231.359 251.731 229.724 249.429 228.764 246.312C227.958 243.696 227.657 240.509 227.892 237.094C228.171 233.05 229.17 228.901 230.703 225.411C231.874 222.746 233.883 219.292 236.796 217.976C244.924 214.307 253.37 218.212 253.726 218.38L254.017 218.518L254.225 218.763C258.469 223.747 258.714 230.633 258.172 235.531C257.562 241.05 255.606 246.905 253.068 250.81C250.525 254.722 248.397 255.084 247.059 254.699C246.191 254.449 245.094 254.623 243.824 254.826C242.82 254.986 241.667 255.17 240.381 255.17ZM244.332 219.394C242.058 219.394 239.949 219.828 238.033 220.693C236.458 221.404 234.785 223.56 233.446 226.608C232.068 229.745 231.132 233.641 230.879 237.3C230.434 243.759 232.016 248.619 235.22 250.633C238.451 252.664 240.943 252.266 243.353 251.882C244.91 251.634 246.381 251.399 247.893 251.835C248.066 251.865 249.312 251.386 251.068 248.355C255.165 241.287 257.763 227.939 252.159 220.951C251.523 220.688 249.889 220.069 247.749 219.699C246.574 219.496 245.433 219.394 244.332 219.394Z" fill="#00227B"/>
</svg>
